<?xml version="1.0" encoding="UTF-8"?>
<svg xmlns="http://www.w3.org/2000/svg" viewBox="0 0 1280 720" width="1280" height="720"
     font-family="Helvetica, 'Helvetica Neue', Arial, 'PingFang TC', 'Microsoft JhengHei', 'Hiragino Sans', 'Noto Sans CJK TC', 'Noto Sans TC', sans-serif">
  <defs>
    <linearGradient id="coverGrad" x1="0%" y1="0%" x2="100%" y2="55%">
      <stop offset="0%" stop-color="#56BE85"/>
      <stop offset="42%" stop-color="#5BA7D6"/>
      <stop offset="80%" stop-color="#7378E0"/>
      <stop offset="100%" stop-color="#878DEB"/>
    </linearGradient>
  </defs>

  <rect width="1280" height="720" fill="url(#coverGrad)"/>

  <!-- panel_emblem watermark: leaf of large rounded panels split by a trunk/branch channel -->
  <g transform="translate(880 110) scale(3.0)" fill="#FFFFFF" fill-opacity="0.15">
    <!-- upper-left panel -->
    <path d="M 10 64 Q 10 50 22 43 L 82 9 Q 96 1 96 17 L 96 99 Q 96 108 88 113 L 24 149 Q 10 157 10 142 Z"/>
    <!-- upper-right panel -->
    <path d="M 200 64 Q 200 50 188 43 L 128 9 Q 114 1 114 17 L 114 99 Q 114 108 122 113 L 186 149 Q 200 157 200 142 Z"/>
    <!-- lower-left panel -->
    <path d="M 10 172 Q 10 157 24 165 L 88 201 Q 96 206 96 217 L 96 248 Q 96 262 82 254 L 22 220 Q 10 213 10 199 Z"/>
    <!-- lower-right panel -->
    <path d="M 200 172 Q 200 157 186 165 L 122 201 Q 114 206 114 217 L 114 248 Q 114 262 128 254 L 188 220 Q 200 213 200 199 Z"/>
  </g>

  <!-- title block -->
  <text x="120" y="336" font-size="66" font-weight="700" fill="#FFFFFF">簡報主標題：八到十四字內</text>
  <rect x="120" y="366" width="700" height="50" fill="#FFFFFF"/>
  <text x="140" y="402" font-size="28" font-weight="700" fill="#3E5BA8">副標：一句說明這份簡報要促成的決定</text>
  <text x="120" y="470" font-size="21" fill="#FFFFFF" fill-opacity="0.92">2026/06  報告人姓名</text>
</svg>
