<?xml version="1.0" encoding="UTF-8"?>
<svg xmlns="http://www.w3.org/2000/svg" viewBox="0 0 1280 720" width="1280" height="720"
     font-family="Helvetica, 'Helvetica Neue', Arial, 'PingFang TC', 'Microsoft JhengHei', 'Hiragino Sans', 'Noto Sans CJK TC', 'Noto Sans TC', sans-serif">
  <defs>
    <linearGradient id="pillGrad" x1="0" y1="0" x2="1" y2="0">
      <stop offset="0%" stop-color="#4EC487"/><stop offset="100%" stop-color="#7BD8A6"/>
    </linearGradient>
    <linearGradient id="lineGrad" x1="120" y1="0" x2="1140" y2="0" gradientUnits="userSpaceOnUse">
      <stop offset="0%" stop-color="#CDEBD9"/>
      <stop offset="100%" stop-color="#7BCBA4"/>
    </linearGradient>
    <radialGradient id="washGreen" cx="6%" cy="96%" r="52%">
      <stop offset="0%" stop-color="#BFE5CC" stop-opacity="0.45"/>
      <stop offset="100%" stop-color="#BFE5CC" stop-opacity="0"/>
    </radialGradient>
    <radialGradient id="washLav" cx="94%" cy="6%" r="44%">
      <stop offset="0%" stop-color="#D9D4F0" stop-opacity="0.45"/>
      <stop offset="100%" stop-color="#D9D4F0" stop-opacity="0"/>
    </radialGradient>
    <filter id="freshShadow" x="-20%" y="-20%" width="140%" height="140%">
      <feGaussianBlur in="SourceAlpha" stdDeviation="10"/>
      <feOffset dx="0" dy="5"/>
      <feComponentTransfer><feFuncA type="linear" slope="0.05"/></feComponentTransfer>
      <feMerge><feMergeNode/><feMergeNode in="SourceGraphic"/></feMerge>
    </filter>
  </defs>

  <rect width="1280" height="720" fill="#F4F4F4"/>
  <rect width="1280" height="720" fill="url(#washGreen)"/>
  <rect width="1280" height="720" fill="url(#washLav)"/>

  <!-- title -->
  <rect x="48" y="44" width="80" height="9" rx="4.5" fill="url(#pillGrad)"/>
  <text x="48" y="102" font-size="34" font-weight="700" fill="#383838">五階段工作流：每階段一個檔案查核點，缺一不可</text>

  <!-- wide panel -->
  <rect x="48" y="160" width="1184" height="480" rx="16" fill="#FFFFFF" filter="url(#freshShadow)"/>

  <!-- transit line with integrated arrowhead -->
  <line x1="140" y1="360" x2="1090" y2="360" stroke="url(#lineGrad)" stroke-width="12" stroke-linecap="round"/>
  <path d="M 1084 338 L 1144 360 L 1084 382 Z" fill="#7BCBA4"/>

  <!-- station 1: Socratic interview -->
  <g>
    <g transform="translate(143 240)">
      <g transform="scale(2.2)" stroke="#5E8FEF" stroke-width="2" stroke-linecap="round" stroke-linejoin="round">
        <path d="M16 21v-2a4 4 0 0 0-4-4H6a4 4 0 0 0-4 4v2" fill="#D8E4FB"/>
        <circle cx="9" cy="7" r="4" fill="#D8E4FB"/>
        <path d="M22 21v-2a4 4 0 0 0-3-3.87M16 3.13a4 4 0 0 1 0 7.75" fill="none"/>
      </g>
    </g>
    <circle cx="170" cy="360" r="16" fill="#FFFFFF" stroke="#5BBE8C" stroke-width="5"/>
    <text x="170" y="428" font-size="20" font-weight="700" fill="#383838" text-anchor="middle">反詰訪談</text>
    <text x="170" y="460" font-size="16" fill="#6B7178" text-anchor="middle">釐清觀點轉變</text>
    <text x="170" y="498" font-size="16" font-weight="700" fill="#E8872E" text-anchor="middle">brief.md</text>
  </g>

  <!-- station 2: outline -->
  <g>
    <g transform="translate(373 240)">
      <g transform="scale(2.2)" stroke="#5E8FEF" stroke-width="2" stroke-linecap="round" stroke-linejoin="round">
        <path d="M2 3h6a4 4 0 0 1 4 4v14a3 3 0 0 0-3-3H2z" fill="#D8E4FB"/>
        <path d="M22 3h-6a4 4 0 0 0-4 4v14a3 3 0 0 1 3-3h7z" fill="#FFFFFF"/>
      </g>
    </g>
    <circle cx="400" cy="360" r="16" fill="#FFFFFF" stroke="#5BBE8C" stroke-width="5"/>
    <text x="400" y="428" font-size="20" font-weight="700" fill="#383838" text-anchor="middle">大綱架構</text>
    <text x="400" y="460" font-size="16" fill="#6B7178" text-anchor="middle">金字塔原理</text>
    <text x="400" y="498" font-size="16" font-weight="700" fill="#E8872E" text-anchor="middle">outline.json</text>
  </g>

  <!-- station 3: planning -->
  <g>
    <g transform="translate(603 240)">
      <g transform="scale(2.2)" stroke="#5E8FEF" stroke-width="2" stroke-linecap="round" stroke-linejoin="round">
        <path d="M14 2H6a2 2 0 0 0-2 2v16a2 2 0 0 0 2 2h12a2 2 0 0 0 2-2V8z" fill="#D8E4FB"/>
        <polyline points="14 2 14 8 20 8" fill="#FFFFFF"/>
        <line x1="16" y1="13" x2="8" y2="13"/><line x1="16" y1="17" x2="8" y2="17"/>
      </g>
    </g>
    <circle cx="630" cy="360" r="16" fill="#FFFFFF" stroke="#5BBE8C" stroke-width="5"/>
    <text x="630" y="428" font-size="20" font-weight="700" fill="#383838" text-anchor="middle">策劃稿</text>
    <text x="630" y="460" font-size="16" fill="#6B7178" text-anchor="middle">每頁一個主張</text>
    <text x="630" y="498" font-size="16" font-weight="700" fill="#E8872E" text-anchor="middle">planning.json</text>
  </g>

  <!-- station 4: SVG design -->
  <g>
    <g transform="translate(833 240)">
      <g transform="scale(2.2)" stroke="#5E8FEF" stroke-width="2" stroke-linecap="round" stroke-linejoin="round">
        <circle cx="12" cy="12" r="10" fill="#D8E4FB"/>
        <polygon points="16.24 7.76 14.12 14.12 7.76 16.24 9.88 9.88 16.24 7.76" fill="#FFFFFF"/>
      </g>
    </g>
    <circle cx="860" cy="360" r="16" fill="#FFFFFF" stroke="#5BBE8C" stroke-width="5"/>
    <text x="860" y="428" font-size="20" font-weight="700" fill="#383838" text-anchor="middle">SVG 設計</text>
    <text x="860" y="460" font-size="16" fill="#6B7178" text-anchor="middle">Bento 版型</text>
    <text x="860" y="498" font-size="16" font-weight="700" fill="#E8872E" text-anchor="middle">pages/*.svg</text>
  </g>

  <!-- station 5: assemble & deliver -->
  <g>
    <g transform="translate(1063 240)">
      <g transform="scale(2.2)" stroke="#5E8FEF" stroke-width="2" stroke-linecap="round" stroke-linejoin="round">
        <path d="M21 15v4a2 2 0 0 1-2 2H5a2 2 0 0 1-2-2v-4" fill="none"/>
        <polyline points="7 10 12 15 17 10" fill="none"/><line x1="12" y1="15" x2="12" y2="3"/>
      </g>
    </g>
    <circle cx="1090" cy="360" r="16" fill="#FFFFFF" stroke="#5BBE8C" stroke-width="5"/>
    <text x="1090" y="428" font-size="20" font-weight="700" fill="#383838" text-anchor="middle">組裝交付</text>
    <text x="1090" y="460" font-size="16" fill="#6B7178" text-anchor="middle">全程可編輯</text>
    <text x="1090" y="498" font-size="16" font-weight="700" fill="#E8872E" text-anchor="middle">.pptx + .pdf</text>
  </g>

  <!-- footnote -->
  <text x="640" y="586" font-size="16" fill="#4A5158" text-anchor="middle">跳過任何一階段是品質事故的頭號原因——檔案查核點讓流程可檢視、可重啟</text>
</svg>
